<svg id="visual" viewBox="0 0 960 540" width="960" height="540" xmlns="http://www.w3.org/2000/svg" xmlns:xlink="http://www.w3.org/1999/xlink" version="1.1"><rect x="0" y="0" width="960" height="540" fill="#FFFFFF"></rect><defs><linearGradient id="grad1_0" x1="43.8%" y1="0%" x2="100%" y2="100%"><stop offset="14.444444444444446%" stop-color="#ffffff" stop-opacity="1"></stop><stop offset="85.55555555555554%" stop-color="#ffffff" stop-opacity="1"></stop></linearGradient></defs><defs><linearGradient id="grad2_0" x1="0%" y1="0%" x2="56.3%" y2="100%"><stop offset="14.444444444444446%" stop-color="#ffffff" stop-opacity="1"></stop><stop offset="85.55555555555554%" stop-color="#ffffff" stop-opacity="1"></stop></linearGradient></defs><g transform="translate(960, 0)"><path d="M0 405C-44.9 380.4 -89.8 355.7 -140.8 340C-191.8 324.2 -248.8 317.4 -286.4 286.4C-323.9 255.4 -341.9 200.2 -358.5 148.5C-375 96.7 -390 48.4 -405 0L0 0Z" fill="#FBAE3C"></path></g><g transform="translate(0, 540)"><path d="M0 -405C53.8 -395 107.7 -385.1 148.9 -359.4C190.1 -333.7 218.6 -292.3 258.1 -258.1C297.5 -223.9 347.9 -196.8 374.2 -155C400.5 -113.2 402.7 -56.6 405 0L0 0Z" fill="#FBAE3C"></path></g></svg>